<?xml version="1.0" encoding="utf-8"?>
<!-- Generator: Adobe Illustrator 25.2.3, SVG Export Plug-In . SVG Version: 6.00 Build 0)  -->
<svg version="1.1" id="Layer_1" xmlns="http://www.w3.org/2000/svg" xmlns:xlink="http://www.w3.org/1999/xlink" x="0px" y="0px"
	 viewBox="0 0 324 342" style="enable-background:new 0 0 324 342;" xml:space="preserve">
<style type="text/css">
	.st0{fill:#FFFFFF;}
	.st1{fill-rule:evenodd;clip-rule:evenodd;fill:#FFFFFF;}
</style>
<g>
	<g>
		<g>
			<path class="st0" d="M128.5,177.5c0,11.8,4.6,17.5,14.1,17.5c5.3,0,9.6-1.6,10-1.8l0.3-0.1v-4.4l-0.8,0.6c-1,0.7-3.9,2.5-8,2.5
				c-6.3,0-9.3-5.1-9.3-15.5c0-4.6,0.9-12.3,7.1-12.3c3.9,0,4.9,2.8,5.1,4.4l0.1,0.4h6.8l-0.1-0.6c-0.4-2.8-2.4-7.5-11.4-7.5
				C133,160.7,128.5,166.2,128.5,177.5z"/>
			<path class="st0" d="M155.3,177.5c0,11.8,4.6,17.5,14.1,17.5c5.3,0,9.6-1.6,10-1.8l0.3-0.1v-4.4l-0.8,0.6c-1,0.7-3.9,2.5-8,2.5
				c-6.3,0-9.3-5.1-9.3-15.5c0-4.6,0.9-12.3,7.1-12.3c3.9,0,4.9,2.8,5.1,4.4l0.1,0.4h6.8l-0.1-0.6c-0.4-2.8-2.4-7.5-11.4-7.5
				C159.8,160.7,155.3,166.2,155.3,177.5z"/>
			<polyline class="st0" points="185.5,194.5 191.8,194.5 191.8,160.7 185.4,161.9 			"/>
		</g>
		<path class="st1" d="M188.6,160.6l0-2.9l3,0.4c-0.1-0.2-0.2-0.4-0.3-0.5c-0.1-0.2-0.1-0.5,0.2-0.7c0.3-0.2,2.9-2.4,2.9-2.4
			c-0.3,0-0.9-0.2-0.7-0.9l0.4-1.5l-0.9,0.2c-0.3,0.1-0.6,0.1-0.8-0.2l-0.4-0.6l-1.2,1.4c-0.2,0.3-0.6,0.3-0.5-0.3
			c0.1-0.6,0.5-3.1,0.5-3.1c-0.3,0.3-0.5,0.4-0.8,0.4c-0.3,0-0.4,0-0.7-0.5l-0.8-1.4l-0.8,1.4c-0.3,0.5-0.4,0.5-0.7,0.5
			c-0.3,0-0.5-0.2-0.8-0.4c0,0,0.4,2.5,0.5,3.1c0.1,0.6-0.3,0.6-0.5,0.3l-1.2-1.3l-0.4,0.6c-0.2,0.3-0.5,0.3-0.8,0.2l-0.9-0.2
			l0.4,1.5c0.1,0.6-0.4,0.9-0.8,0.9c0,0,2.7,2.2,2.9,2.4c0.3,0.2,0.3,0.5,0.2,0.7c-0.1,0.1-0.2,0.4-0.3,0.5l3-0.4l0,2.9H188.6
			L188.6,160.6z"/>
	</g>
</g>
</svg>
