<?xml version="1.0" encoding="utf-8"?>
<!-- Generator: Adobe Illustrator 25.2.3, SVG Export Plug-In . SVG Version: 6.00 Build 0)  -->
<svg version="1.1" id="Layer_1" xmlns="http://www.w3.org/2000/svg" xmlns:xlink="http://www.w3.org/1999/xlink" x="0px" y="0px"
	 viewBox="0 0 28 28" style="enable-background:new 0 0 28 28;" xml:space="preserve">
<style type="text/css">
	.st0{fill:#FFFFFF;}
</style>
<g>
	<rect x="1.5" y="10" class="st0" width="5.4" height="17"/>
	<path class="st0" d="M4.2,7.6c-1.7,0-3.1-1.3-3.1-3.1s1.4-3.1,3.1-3.1s3.1,1.3,3.1,3.1S5.9,7.6,4.2,7.6z"/>
	<path class="st0" d="M26.7,27h-5.4v-9.3c0-2.7-1.2-3.6-2.7-3.6c-1.6,0-3.2,1.2-3.2,3.7V27h-5.4V10h5.2v2.4h0.1
		c0.5-1,2.3-2.8,5.1-2.8c3,0,6.2,1.8,6.2,7V27z"/>
</g>
</svg>
