<?xml version="1.0" encoding="utf-8"?>
<!-- Generator: Adobe Illustrator 25.2.3, SVG Export Plug-In . SVG Version: 6.00 Build 0)  -->
<svg version="1.1" id="Layer_1" xmlns="http://www.w3.org/2000/svg" xmlns:xlink="http://www.w3.org/1999/xlink" x="0px" y="0px"
	 viewBox="0 0 302 66" style="enable-background:new 0 0 302 66;" xml:space="preserve">
<style type="text/css">
	.st0{fill:#FFFFFF;}
	.st1{fill:#377AB4;}
</style>
<g>
	<path class="st0" d="M97.7,42.5c-0.6,0.5-1.3,0.9-1.9,1.2s-1.3,0.5-2,0.7c-0.7,0.1-1.5,0.2-2.3,0.2c-1.2,0-2.3-0.2-3.2-0.6
		c-0.9-0.4-1.8-1-2.4-1.7c-0.7-0.8-1.2-1.7-1.5-2.7c-0.3-1.1-0.5-2.2-0.5-3.5c0-1.7,0.3-3.3,0.8-4.8s1.3-2.9,2.3-4
		c1-1.2,2.1-2.1,3.4-2.8c1.3-0.7,2.8-1,4.3-1c1.4,0,2.5,0.2,3.5,0.7s1.8,1.2,2.6,2.2l-1.6,1.9c-0.1,0.1-0.3,0.2-0.4,0.3
		c-0.2,0.1-0.3,0.2-0.5,0.2s-0.4-0.1-0.6-0.2s-0.4-0.3-0.7-0.5c-0.2-0.2-0.6-0.3-0.9-0.5c-0.4-0.1-0.8-0.2-1.4-0.2
		c-0.8,0-1.5,0.2-2.2,0.6s-1.3,1-1.8,1.8s-1,1.7-1.3,2.8s-0.5,2.3-0.5,3.6c0,1.5,0.3,2.7,1,3.5s1.6,1.2,2.7,1.2
		c0.8,0,1.4-0.1,1.9-0.3s0.9-0.5,1.3-0.7c0.4-0.3,0.7-0.5,0.9-0.7c0.3-0.2,0.6-0.3,0.9-0.3c0.2,0,0.3,0,0.5,0.1s0.3,0.2,0.4,0.3
		l1.3,1.5C99,41.4,98.4,42,97.7,42.5"/>
	<path class="st0" d="M108.3,44.6c-1.1,0-2.2-0.2-3.2-0.6s-1.8-0.9-2.5-1.7c-0.7-0.7-1.3-1.6-1.7-2.7c-0.4-1.1-0.6-2.3-0.6-3.7
		c0-1.8,0.3-3.4,0.9-5c0.6-1.5,1.4-2.9,2.3-4c1-1.1,2.1-2,3.5-2.7c1.3-0.6,2.7-1,4.2-1c1.1,0,2.2,0.2,3.2,0.6s1.8,0.9,2.5,1.7
		c0.7,0.7,1.3,1.6,1.7,2.7c0.4,1.1,0.6,2.3,0.6,3.7c0,1.8-0.3,3.4-0.9,5c-0.6,1.5-1.4,2.9-2.3,4c-1,1.1-2.1,2-3.5,2.7
		C111.2,44.3,109.8,44.6,108.3,44.6 M108.7,40.8c0.8,0,1.6-0.2,2.3-0.7c0.7-0.5,1.2-1.1,1.7-1.9c0.5-0.8,0.8-1.7,1.1-2.8
		c0.3-1.1,0.4-2.2,0.4-3.3c0-1.7-0.3-2.9-0.9-3.7c-0.6-0.8-1.4-1.2-2.6-1.2c-0.8,0-1.6,0.2-2.3,0.7c-0.7,0.5-1.2,1.1-1.7,1.9
		s-0.8,1.7-1.1,2.8c-0.3,1.1-0.4,2.2-0.4,3.4c0,1.7,0.3,2.9,0.8,3.7C106.7,40.4,107.6,40.8,108.7,40.8"/>
	<path class="st0" d="M120.1,44.3l2.5-20.7h2.5c0.5,0,0.9,0.1,1.2,0.4c0.3,0.3,0.4,0.7,0.4,1.2l-0.1,2.7c1-1.5,2.2-2.7,3.5-3.5
		s2.6-1.1,3.9-1.1c0.8,0,1.5,0.1,2.1,0.4s1.2,0.7,1.6,1.2c0.4,0.5,0.8,1.2,1,2s0.4,1.7,0.4,2.7c0,0.3,0,0.5,0,0.8s0,0.5-0.1,0.8
		l-1.6,13.1h-5c0.3-2.3,0.5-4.2,0.7-5.8s0.3-2.9,0.5-3.9c0.1-1,0.2-1.9,0.3-2.5c0.1-0.6,0.1-1.1,0.2-1.4c0-0.3,0.1-0.5,0.1-0.6
		s0-0.2,0-0.3c0-0.9-0.2-1.5-0.5-1.9s-0.8-0.6-1.5-0.6c-0.6,0-1.1,0.2-1.7,0.5c-0.6,0.3-1.2,0.8-1.7,1.4s-1,1.3-1.5,2.1
		c-0.4,0.8-0.8,1.8-1.1,2.8l-1.1,10.1h-5V44.3z"/>
	<path class="st0" d="M154.7,42.5c-0.6,0.5-1.3,0.9-1.9,1.2c-0.6,0.3-1.3,0.5-2,0.7c-0.7,0.1-1.5,0.2-2.3,0.2
		c-1.2,0-2.3-0.2-3.2-0.6c-1-0.4-1.8-1-2.4-1.7c-0.7-0.8-1.2-1.7-1.5-2.7c-0.3-1.1-0.5-2.2-0.5-3.5c0-1.7,0.3-3.3,0.8-4.8
		s1.3-2.9,2.3-4c1-1.2,2.1-2.1,3.4-2.8c1.3-0.7,2.8-1,4.3-1c1.4,0,2.5,0.2,3.5,0.7s1.8,1.2,2.6,2.2l-1.6,1.9
		c-0.1,0.1-0.3,0.2-0.4,0.3c-0.2,0.1-0.3,0.2-0.5,0.2s-0.4-0.1-0.6-0.2c-0.2-0.1-0.4-0.3-0.7-0.5c-0.2-0.2-0.6-0.3-0.9-0.5
		c-0.4-0.1-0.8-0.2-1.4-0.2c-0.8,0-1.5,0.2-2.2,0.6s-1.3,1-1.8,1.8s-1,1.7-1.3,2.8s-0.5,2.3-0.5,3.6c0,1.5,0.3,2.7,1,3.5
		s1.6,1.2,2.7,1.2c0.8,0,1.4-0.1,1.9-0.3s0.9-0.5,1.3-0.7c0.4-0.3,0.7-0.5,0.9-0.7c0.3-0.2,0.6-0.3,0.9-0.3c0.2,0,0.3,0,0.5,0.1
		s0.3,0.2,0.4,0.3l1.3,1.5C156,41.4,155.3,42,154.7,42.5"/>
	<path class="st0" d="M165.3,23.7l-2.5,20.7h-4.9l2.5-20.7H165.3z M166.5,17.6c0,0.4-0.1,0.8-0.3,1.2c-0.2,0.4-0.4,0.7-0.7,1
		s-0.6,0.5-1,0.7s-0.8,0.3-1.2,0.3s-0.8-0.1-1.1-0.3c-0.4-0.2-0.7-0.4-1-0.7c-0.3-0.3-0.5-0.6-0.7-1s-0.2-0.8-0.2-1.2
		c0-0.4,0.1-0.8,0.3-1.2c0.2-0.4,0.4-0.7,0.7-1s0.6-0.5,1-0.7s0.7-0.3,1.1-0.3c0.4,0,0.8,0.1,1.2,0.3s0.7,0.4,1,0.7s0.5,0.6,0.7,1
		C166.4,16.8,166.5,17.2,166.5,17.6"/>
	<path class="st0" d="M184.3,28.4c0,0.9-0.2,1.8-0.6,2.5c-0.4,0.8-1,1.4-2,2.1c-1,0.6-2.2,1.1-3.9,1.6c-1.6,0.4-3.7,0.8-6.2,1v0.3
		c0,3.2,1.4,4.9,4.1,4.9c0.6,0,1.1-0.1,1.6-0.2c0.4-0.1,0.8-0.3,1.2-0.4c0.3-0.2,0.6-0.3,0.9-0.5c0.3-0.2,0.5-0.4,0.8-0.5
		c0.2-0.2,0.5-0.3,0.7-0.4c0.2-0.1,0.5-0.2,0.7-0.2s0.3,0,0.5,0.1s0.3,0.2,0.4,0.3l1.3,1.5c-0.7,0.7-1.4,1.3-2.1,1.9
		c-0.7,0.5-1.4,1-2.1,1.3c-0.7,0.3-1.5,0.6-2.3,0.7c-0.8,0.2-1.7,0.2-2.6,0.2c-1.2,0-2.3-0.2-3.3-0.6c-1-0.4-1.8-1-2.5-1.7
		s-1.2-1.6-1.6-2.7c-0.4-1.1-0.6-2.2-0.6-3.5c0-1.1,0.1-2.2,0.4-3.2c0.2-1,0.6-2,1-3c0.4-0.9,1-1.8,1.6-2.6c0.6-0.8,1.4-1.5,2.2-2.1
		s1.7-1,2.7-1.3s2-0.5,3.1-0.5s2,0.2,2.8,0.5s1.5,0.7,2,1.2s1,1,1.2,1.6C184.2,27.3,184.3,27.9,184.3,28.4 M177.5,26.8
		c-0.7,0-1.3,0.1-1.9,0.4c-0.6,0.3-1.1,0.7-1.6,1.2s-0.9,1.1-1.2,1.8c-0.3,0.7-0.6,1.4-0.8,2.3c1.7-0.2,3-0.5,4-0.7
		c1-0.3,1.8-0.6,2.4-0.9c0.6-0.3,0.9-0.7,1.1-1c0.2-0.4,0.3-0.8,0.3-1.2c0-0.2,0-0.4-0.1-0.6s-0.2-0.4-0.4-0.6s-0.4-0.3-0.7-0.4
		C178.3,26.9,178,26.8,177.5,26.8"/>
	<path class="st0" d="M185,44.3l2.5-20.7h2.5c0.5,0,0.9,0.1,1.2,0.3c0.3,0.2,0.5,0.6,0.5,1c0,0.1,0,0.3,0,0.5s0,0.6,0,1.1
		s0,1.2-0.1,2.1c0.8-1.6,1.8-2.9,2.8-3.8s2.1-1.3,3.1-1.3c0.5,0,1.1,0.1,1.7,0.4l-0.9,4.7c-0.7-0.3-1.3-0.4-1.9-0.4
		c-1.2,0-2.2,0.6-3.1,1.7c-0.9,1.1-1.6,2.9-2.2,5.4l-1.1,9H185z"/>
	<path class="st0" d="M215,29.6c0,0.6-0.1,1.2-0.2,1.7c-0.1,0.5-0.3,0.9-0.5,1.4c-0.2,0.4-0.4,0.8-0.6,1.2c-0.2,0.4-0.4,0.7-0.6,1.1
		c-0.2,0.4-0.4,0.8-0.5,1.2s-0.2,0.9-0.2,1.4c0,0.6,0.1,1.1,0.3,1.5c0.2,0.5,0.5,0.9,0.7,1.4c0.3,0.5,0.5,1,0.7,1.5s0.3,1.2,0.3,1.9
		c0,1-0.2,2-0.7,2.9s-1.1,1.7-2,2.4s-1.9,1.2-3.1,1.6c-1.2,0.4-2.6,0.6-4.2,0.6c-1.3,0-2.4-0.1-3.4-0.4c-1-0.3-1.9-0.6-2.6-1.1
		c-0.7-0.5-1.3-1-1.6-1.7c-0.4-0.6-0.6-1.3-0.6-2.1c0-1.1,0.3-2.1,0.9-2.9c0.6-0.8,1.3-1.4,2.2-1.9s1.9-0.8,3.1-1
		c1.1-0.2,2.3-0.3,3.4-0.3c0.5,0,1.1,0,1.6,0.1c0.5,0,1,0.1,1.5,0.2c-0.1-0.2-0.1-0.4-0.1-0.6c0-0.2,0-0.4,0-0.7
		c0-0.8,0.2-1.6,0.6-2.6c-0.5,0.3-1.1,0.6-1.7,0.8c-0.6,0.2-1.4,0.3-2.3,0.3c-0.8,0-1.5-0.1-2.2-0.4c-0.7-0.3-1.3-0.6-1.9-1.2
		c-0.5-0.5-1-1.2-1.3-2s-0.5-1.7-0.5-2.7s0.2-2,0.6-2.9c0.4-1,0.9-1.8,1.7-2.6c0.7-0.8,1.7-1.4,2.7-1.8c1.1-0.5,2.3-0.7,3.8-0.7
		c0.8,0,1.5,0.1,2.2,0.3c0.7,0.2,1.3,0.4,1.9,0.8h5.8l-0.2,1.6c-0.1,0.3-0.2,0.6-0.3,0.8c-0.2,0.2-0.4,0.4-0.7,0.5l-2.1,0.6
		c0.1,0.3,0.1,0.6,0.2,0.8C215,29,215,29.3,215,29.6 M210,44.4c0-0.2,0-0.4,0-0.6c0-0.2,0-0.4-0.1-0.5c-0.7-0.1-1.4-0.2-2-0.3
		s-1.2-0.1-1.7-0.1c-0.9,0-1.7,0.1-2.3,0.2c-0.7,0.1-1.2,0.3-1.6,0.6c-0.4,0.2-0.7,0.5-0.9,0.8s-0.3,0.7-0.3,1c0,0.8,0.3,1.4,1,1.8
		c0.6,0.4,1.6,0.6,3,0.6c0.8,0,1.4-0.1,2.1-0.3c0.6-0.2,1.1-0.4,1.6-0.8c0.4-0.3,0.8-0.7,1-1.2C209.8,45.4,210,44.9,210,44.4
		 M206.7,34.6c0.6,0,1.1-0.1,1.6-0.4c0.5-0.3,0.8-0.7,1.2-1.1c0.3-0.5,0.6-1,0.7-1.5c0.2-0.6,0.2-1.1,0.2-1.7c0-1-0.2-1.8-0.7-2.3
		s-1.2-0.8-2.1-0.8c-0.6,0-1.1,0.1-1.6,0.4s-0.8,0.6-1.1,1s-0.5,0.9-0.7,1.5s-0.2,1.1-0.2,1.8c0,1,0.2,1.8,0.7,2.4
		C205.2,34.3,205.8,34.6,206.7,34.6"/>
	<path class="st0" d="M234.7,28.4c0,0.9-0.2,1.8-0.6,2.5c-0.4,0.8-1,1.4-2,2.1c-1,0.6-2.2,1.1-3.9,1.6c-1.6,0.4-3.7,0.8-6.2,1v0.3
		c0,3.2,1.4,4.9,4.1,4.9c0.6,0,1.1-0.1,1.6-0.2c0.4-0.1,0.8-0.3,1.2-0.4c0.3-0.2,0.7-0.3,0.9-0.5c0.3-0.2,0.5-0.4,0.8-0.5
		c0.2-0.2,0.5-0.3,0.7-0.4c0.2-0.1,0.5-0.2,0.7-0.2s0.3,0,0.5,0.1s0.3,0.2,0.4,0.3l1.3,1.5c-0.7,0.7-1.4,1.3-2.1,1.9
		c-0.7,0.5-1.4,1-2.1,1.3c-0.7,0.3-1.5,0.6-2.3,0.7c-0.8,0.2-1.7,0.2-2.6,0.2c-1.2,0-2.3-0.2-3.3-0.6c-1-0.4-1.8-1-2.5-1.7
		s-1.2-1.6-1.6-2.7c-0.4-1.1-0.6-2.2-0.6-3.5c0-1.1,0.1-2.2,0.4-3.2c0.2-1,0.6-2,1-3c0.4-0.9,1-1.8,1.6-2.6c0.6-0.8,1.4-1.5,2.2-2.1
		s1.7-1,2.7-1.3s2-0.5,3.1-0.5s2,0.2,2.8,0.5s1.5,0.7,2,1.2s0.9,1,1.2,1.6C234.6,27.3,234.7,27.9,234.7,28.4 M228,26.8
		c-0.7,0-1.3,0.1-1.9,0.4c-0.6,0.3-1.1,0.7-1.6,1.2s-0.9,1.1-1.2,1.8c-0.3,0.7-0.6,1.4-0.8,2.3c1.7-0.2,3-0.5,4-0.7
		c1-0.3,1.8-0.6,2.4-0.9c0.6-0.3,0.9-0.7,1.1-1c0.2-0.4,0.3-0.8,0.3-1.2c0-0.2,0-0.4-0.1-0.6s-0.2-0.4-0.4-0.6s-0.4-0.3-0.7-0.4
		C228.7,26.9,228.4,26.8,228,26.8"/>
	<path class="st0" d="M242.1,51.4l3.3-27.2h0.9c0.5,0,0.7,0.2,0.7,0.7l-0.6,6.3c0.5-1.1,1.1-2.1,1.8-3s1.3-1.7,2.1-2.3
		c0.7-0.6,1.5-1.1,2.3-1.5s1.6-0.5,2.4-0.5c0.9,0,1.6,0.2,2.3,0.5c0.7,0.3,1.2,0.8,1.6,1.4s0.8,1.3,1,2.2c0.2,0.9,0.3,1.8,0.3,2.9
		c0,1-0.1,2.1-0.3,3.2c-0.2,1.1-0.5,2.1-0.9,3.1s-0.9,1.9-1.4,2.8c-0.6,0.9-1.2,1.7-1.9,2.3c-0.7,0.7-1.5,1.2-2.4,1.6
		c-0.9,0.4-1.8,0.6-2.7,0.6c-1.1,0-2.1-0.2-3-0.7s-1.7-1.2-2.2-2.1l-1.2,9.7C244.2,51.4,242.1,51.4,242.1,51.4z M254.2,25.5
		c-0.8,0-1.5,0.2-2.3,0.6s-1.5,1-2.2,1.8s-1.4,1.7-2,2.8c-0.6,1.1-1.2,2.3-1.7,3.7l-0.7,5.8c0.6,1.1,1.3,1.8,2.2,2.2
		s1.8,0.6,2.7,0.6c0.8,0,1.6-0.2,2.4-0.5c0.7-0.3,1.4-0.8,2-1.4c0.6-0.6,1.1-1.3,1.6-2.1c0.5-0.8,0.9-1.6,1.2-2.5
		c0.3-0.9,0.6-1.8,0.7-2.7c0.2-0.9,0.3-1.8,0.3-2.7c0-1.8-0.3-3.2-1-4.2C256.5,26,255.5,25.5,254.2,25.5"/>
	<polygon class="st0" points="262.5,44.3 266,15 267.9,15 264.3,44.3 	"/>
	<path class="st0" d="M273.7,24.3L272.2,37c-0.1,0.6-0.1,1.2-0.1,1.8c0,1.4,0.3,2.4,0.8,3.1c0.5,0.7,1.3,1.1,2.4,1.1
		c0.7,0,1.5-0.2,2.2-0.6c0.7-0.4,1.5-0.9,2.2-1.6c0.7-0.7,1.4-1.5,2-2.5s1.2-2.1,1.7-3.3l1.3-10.6h1.9l-2.4,20h-0.9
		c-0.3,0-0.4-0.1-0.6-0.2c-0.1-0.1-0.2-0.3-0.2-0.5l0.6-5.7c-0.5,1.1-1.2,2-1.8,2.8c-0.7,0.8-1.4,1.5-2.1,2.1s-1.5,1-2.3,1.3
		s-1.6,0.5-2.3,0.5c-1.5,0-2.6-0.5-3.3-1.5c-0.7-1-1.1-2.4-1.1-4.2c0-0.1,0-0.3,0-0.4c0-0.1,0-0.4,0.1-0.7c0-0.3,0.1-0.8,0.2-1.4
		c0.1-0.6,0.2-1.4,0.3-2.5c0.1-1,0.3-2.3,0.5-3.9s0.4-3.5,0.7-5.7L273.7,24.3L273.7,24.3z"/>
	<path class="st0" d="M301.5,26.7c-0.1,0.2-0.3,0.3-0.4,0.3s-0.3-0.1-0.5-0.3c-0.2-0.2-0.5-0.4-0.8-0.6s-0.7-0.4-1.2-0.6
		s-1.1-0.3-1.9-0.3c-0.7,0-1.3,0.1-1.9,0.3c-0.6,0.2-1.1,0.5-1.6,0.9c-0.4,0.4-0.8,0.8-1.1,1.3c-0.3,0.5-0.4,1-0.4,1.6
		c0,0.5,0.1,1,0.4,1.4s0.6,0.7,1,1s0.9,0.5,1.4,0.7s1.1,0.4,1.6,0.6c0.6,0.2,1.1,0.4,1.6,0.7c0.5,0.2,1,0.5,1.4,0.9
		c0.4,0.3,0.8,0.8,1,1.3c0.3,0.5,0.4,1.1,0.4,1.8c0,0.9-0.2,1.7-0.5,2.5s-0.8,1.5-1.5,2.1c-0.6,0.6-1.4,1.1-2.3,1.5s-1.9,0.6-3,0.6
		c-1.3,0-2.4-0.2-3.3-0.7c-0.9-0.4-1.6-1-2.3-1.8l0.5-0.7c0.1-0.1,0.2-0.2,0.2-0.2c0.1-0.1,0.2-0.1,0.3-0.1c0.1,0,0.3,0.1,0.5,0.3
		s0.5,0.5,0.8,0.7c0.4,0.3,0.8,0.5,1.4,0.7c0.5,0.2,1.2,0.3,2.1,0.3c0.8,0,1.5-0.1,2.2-0.4c0.7-0.3,1.2-0.6,1.7-1.1s0.8-1,1.1-1.6
		c0.3-0.6,0.4-1.2,0.4-1.9c0-0.6-0.1-1.1-0.4-1.5s-0.6-0.7-1-1s-0.9-0.5-1.4-0.7s-1.1-0.4-1.6-0.6c-0.6-0.2-1.1-0.4-1.6-0.6
		c-0.5-0.2-1-0.5-1.4-0.9c-0.4-0.3-0.7-0.7-1-1.2s-0.4-1.1-0.4-1.8c0-0.8,0.2-1.5,0.5-2.2s0.8-1.4,1.4-1.9c0.6-0.6,1.3-1,2.2-1.3
		c0.8-0.3,1.7-0.5,2.7-0.5c1.1,0,2.1,0.2,2.9,0.5c0.8,0.4,1.6,0.9,2.2,1.6L301.5,26.7z"/>
	<path class="st1" d="M33,0C14.8,0,0,14.8,0,33s14.8,33,33,33s33-14.8,33-33S51.2,0,33,0z M47,50.1L47,50.1
		c-4.4,1.1-9.1,1.4-13.3,1.4c-0.3,0-0.5,0-0.8,0s-0.5,0-0.8,0c-4.2,0-8.9-0.4-13.4-1.4h0.1c-1.4-0.1-1.8-1.9-0.1-2.4h0.1l0,0
		c0.6,0.1,6.5,1.3,14.1,1.4c7.6-0.1,13.5-1.3,14.1-1.4l0,0h0.1C48.8,48.2,48.4,50,47,50.1z M30.6,35.4h-0.2c-0.5,0-1-0.4-1-1
		c0-0.5,0.4-1,1-1h5.1c0.5,0,1,0.4,1,1c0,0.5-0.4,1-1,1h-0.2c-1.2,0-1.3,1.2-1.3,1.2v0.3c0,0.5-0.4,1-1,1c-0.5,0-1-0.4-1-1v-0.3
		C32,36.6,31.8,35.4,30.6,35.4z M30.5,37.7c0.6,1.5,2.4,1.6,2.4,1.6s1.8,0,2.4-1.6c4,0.7,10.7,2.2,10.9,8.7
		c-11.6,2.6-23.9,0.5-26.6,0C19.9,39.9,26.1,38.6,30.5,37.7z M57.6,23.6l-1.4,4.8c-0.4,1.7-2.9,2-7.4,2h-1c-0.2,0-0.9,0-1.1,0
		l-0.4,0.1c-1.1,0.2-2.7,0.5-4.4,0.5c-1.3,0-2.5-0.2-3.5-0.6c-2.4-1-5.3-1.5-6.3-1.3c-0.5,0.1-1.4,0.1-2.4,0.1c-1.7,0-4-0.1-5.5-0.8
		c-0.6-0.3-0.9-0.6-1-1c-0.3-1.1,0.8-2,0.8-2c0.4-0.4,1.4-1,4.4-1c0.4,0,0.7,0,1,0c0.6,0,1.2,0,1.9,0c4.9,0,8.8-0.7,9.8-1.8
		c0,0,0.6-0.5,0.6-1.1c0-0.8-1.2-0.8-2.1-0.3c-1.1,0.8-4.9,1.4-8.6,1.4c-0.5,0-1,0-1.5,0c-4.4-0.2-6,0.7-6.8,1.5l-0.1,0.1
		c-0.3,0.2-0.8,0.6-1.5,1.1c-3.9,2.9-8.1,6-9.3,6.7c-0.2,0.1-0.5,0.3-1.1,0.3c-0.8,0-1.7-0.6-2.4-1.5c-0.7-0.9,0.2-1.6,0.3-1.8
		l0.3,0c1.1-0.9,10.5-8.9,12-9.7c1.4-0.8,12.7-4.8,14-4.8c1,0,14.1,3.2,19.7,4.6c2.6,0.7,3.3,2.8,3.2,4.4L57.6,23.6z"/>
</g>
</svg>
