<?xml version="1.0" encoding="utf-8"?>
<!-- Generator: Adobe Illustrator 25.2.3, SVG Export Plug-In . SVG Version: 6.00 Build 0)  -->
<svg version="1.1" id="Layer_1" xmlns="http://www.w3.org/2000/svg" xmlns:xlink="http://www.w3.org/1999/xlink" x="0px" y="0px"
	 viewBox="0 0 126 106" style="enable-background:new 0 0 126 106;" xml:space="preserve">
<style type="text/css">
	.st0{fill:#2781F0;}
	.st1{fill:#2BBBF8;}
	.st2{fill:#2E3192;}
</style>
<g>
	<path class="st0" d="M86.9,17.1v-10c0-2.4-1.9-4.3-4.3-4.3H6.1c-2.4,0-4.3,1.9-4.3,4.3v62.5c0,2.4,1.9,4.3,4.3,4.3h5v17.7
		c0,1.2,1.5,1.8,2.3,1l18.6-18.6h23c-3.5-5.7-5.5-12.3-5.5-19.5C49.5,33.8,66.3,17.1,86.9,17.1z"/>
	<path class="st1" d="M86.9,17.1v52.5c0,2.4-1.9,4.3-4.3,4.3H55c6.6,10.7,18.4,17.8,31.8,17.8c2.8,0,5.5-0.3,8.1-0.9l11.5,11.5
		c0.7,0.7,2,0.2,2-0.8V84.7c9.5-6.8,15.6-17.8,15.6-30.4C124.2,33.8,107.5,17.1,86.9,17.1z"/>
	<path class="st2" d="M86.9,69.5V17.1c-20.6,0-37.3,16.7-37.3,37.3c0,7.1,2,13.8,5.5,19.5h27.5C84.9,73.9,86.9,71.9,86.9,69.5z"/>
</g>
</svg>
