<?xml version="1.0" encoding="utf-8"?>
<!-- Generator: Adobe Illustrator 25.2.3, SVG Export Plug-In . SVG Version: 6.00 Build 0)  -->
<svg version="1.1" id="Layer_1" xmlns="http://www.w3.org/2000/svg" xmlns:xlink="http://www.w3.org/1999/xlink" x="0px" y="0px"
	 viewBox="0 0 28 28" style="enable-background:new 0 0 28 28;" xml:space="preserve">
<style type="text/css">
	.st0{fill:#FFFFFF;}
</style>
<path class="st0" d="M9.1,24.7c9.9,0,15.3-8.2,15.3-15.3c0-0.2,0-0.5,0-0.7c1.1-0.8,2-1.7,2.7-2.8c-1,0.4-2,0.7-3.1,0.8
	c1.1-0.7,2-1.7,2.4-3c-1,0.6-2.2,1.1-3.4,1.3c-1-1-2.4-1.7-3.9-1.7c-3,0-5.4,2.4-5.4,5.4c0,0.4,0,0.8,0.1,1.2
	C9.3,9.7,5.3,7.6,2.7,4.3C2.2,5.1,2,6,2,7c0,1.9,1,3.5,2.4,4.5c-0.9,0-1.7-0.3-2.4-0.7c0,0,0,0,0,0.1c0,2.6,1.9,4.8,4.3,5.3
	c-0.5,0.1-0.9,0.2-1.4,0.2c-0.3,0-0.7,0-1-0.1c0.7,2.1,2.7,3.7,5,3.7c-1.8,1.4-4.2,2.3-6.7,2.3c-0.4,0-0.9,0-1.3-0.1
	C3.2,23.8,6.1,24.7,9.1,24.7"/>
</svg>
