<?xml version="1.0" encoding="utf-8"?>
<!-- Generator: Adobe Illustrator 25.2.3, SVG Export Plug-In . SVG Version: 6.00 Build 0)  -->
<svg version="1.1" id="Layer_1" xmlns="http://www.w3.org/2000/svg" xmlns:xlink="http://www.w3.org/1999/xlink" x="0px" y="0px"
	 viewBox="0 0 126 106" style="enable-background:new 0 0 126 106;" xml:space="preserve">
<style type="text/css">
	.st0{fill:#2781F0;}
	.st1{fill:#2BBBF8;}
	.st2{fill:#2E3192;}
</style>
<path class="st0" d="M29.3,18.7h70.3V4.3c0-1.6-1.3-2.9-2.9-2.9H6.8c-1.6,0-2.9,1.3-2.9,2.9v80.1c0,1.6,1.3,2.9,2.9,2.9h19.5V21.6
	C26.4,20,27.7,18.7,29.3,18.7z"/>
<path class="st1" d="M119.2,18.7H99.6v65.7c0,1.6-1.3,2.9-2.9,2.9H26.4v14.4c0,1.6,1.3,2.9,2.9,2.9h89.9c1.6,0,2.9-1.3,2.9-2.9V21.6
	C122.1,20,120.8,18.7,119.2,18.7z"/>
<g>
	<path class="st2" d="M29.3,18.7c-1.6,0-2.9,1.3-2.9,2.9v65.7h70.3c1.6,0,2.9-1.3,2.9-2.9V18.7H29.3z M78.1,53.9l-16,14.3
		c-0.8,0.7-2,0.1-2-0.9V38.7c0-1.1,1.2-1.6,2-0.9l16,14.3C78.7,52.6,78.7,53.4,78.1,53.9z"/>
</g>
</svg>
