<?xml version="1.0" encoding="utf-8"?>
<!-- Generator: Adobe Illustrator 25.2.3, SVG Export Plug-In . SVG Version: 6.00 Build 0)  -->
<svg version="1.1" id="Layer_1" xmlns="http://www.w3.org/2000/svg" xmlns:xlink="http://www.w3.org/1999/xlink" x="0px" y="0px"
	 viewBox="0 0 28 28" style="enable-background:new 0 0 28 28;" xml:space="preserve">
<style type="text/css">
	.st0{fill:#FFFFFF;}
</style>
<path class="st0" d="M26.8,7.5c-0.3-1.2-1.2-2.1-2.4-2.4C22.4,4.6,14,4.6,14,4.6s-8.4,0-10.5,0.6C2.4,5.4,1.5,6.3,1.2,7.5
	C0.6,9.6,0.6,14,0.6,14s0,4.4,0.6,6.5c0.3,1.2,1.2,2.1,2.4,2.4C5.6,23.4,14,23.4,14,23.4s8.4,0,10.5-0.6c1.2-0.3,2.1-1.2,2.4-2.4
	c0.6-2.1,0.6-6.5,0.6-6.5S27.4,9.6,26.8,7.5z M11.3,18v-8l7,4L11.3,18z"/>
</svg>
